<svg width="90" height="63" viewBox="0 0 90 63" fill="none" xmlns="http://www.w3.org/2000/svg">
<path d="M88 0H2C0.9 0 0 0.9 0 2V60C0 60 0 60 0 60.1C0 60.2 0 60.2 0 60.3C0 60.4 0 60.4 0 60.5C0 60.6 -9.68575e-08 60.6 0.0999999 60.7C0.0999999 60.8 0.0999998 60.8 0.2 60.9C0.2 61 0.3 61 0.3 61.1C0.3 61.2 0.4 61.2 0.4 61.3C0.4 61.3 0.4 61.3 0.4 61.4C0.4 61.4 0.4 61.4 0.5 61.5L0.6 61.6L0.7 61.7C0.7 61.7 0.8 61.8 0.9 61.8C1 61.8 1 61.9 1.1 61.9C1.2 61.9 1.2 62 1.3 62C1.4 62 1.4 62 1.5 62.1C1.6 62.1 1.6 62.1 1.7 62.1C1.8 62.1 1.8 62.1 1.9 62.1H2H88C88.2 62.1 88.3 62.1 88.4 62.1H88.5C88.6 62.1 88.7 62 88.8 62L88.9 61.9C89 61.9 89.1 61.8 89.1 61.7L89.2 61.6C89.3 61.5 89.3 61.5 89.4 61.4L89.5 61.3C89.5 61.3 89.5 61.3 89.5 61.2C89.5 61.1 89.6 61.1 89.6 61C89.6 61 89.7 60.9 89.7 60.8C89.7 60.7 89.7 60.7 89.8 60.6C89.9 60.5 89.8 60.5 89.9 60.4C89.9 60.3 89.9 60.3 89.9 60.2C89.9 60.1 89.9 60.1 89.9 60C89.9 60 89.9 60 89.9 59.9V2C90 0.9 89.1 0 88 0ZM4 13.1L31 34.5L4 55.9V13.1ZM7.8 58L34.3 37L43.8 44.5C44.2 44.8 44.6 44.9 45 44.9C45.4 44.9 45.9 44.8 46.2 44.5L55.7 37L82.2 58H7.8ZM86 55.9L59 34.5L86 13.1V55.9ZM86 8L84.8 9L45 40.5L5.2 9L4 8V4H86V8Z" fill="white"/>
</svg>
